<?xml version="1.0" encoding="UTF-8"?>
<svg version="1.1" xmlns="http://www.w3.org/2000/svg" width="1792" height="1404">
<path d="M0 0 C591.36 0 1182.72 0 1792 0 C1792 463.32 1792 926.64 1792 1404 C1200.64 1404 609.28 1404 0 1404 C0 940.68 0 477.36 0 0 Z " fill="#FDFDFD" transform="translate(0,0)"/>
<path d="M0 0 C2.36396879 -0.00231026 4.72793685 -0.00549055 7.09190345 -0.00945449 C12.85453443 -0.01687066 18.61710965 -0.01515097 24.37974127 -0.00935296 C31.29587997 -0.00292106 38.21199811 -0.00822842 45.12813581 -0.01377678 C58.67643788 -0.02426262 72.22472098 -0.02341363 85.77302481 -0.01761896 C97.63243513 -0.01257206 109.49183852 -0.01128176 121.35124969 -0.01366425 C122.14034088 -0.01381702 122.92943207 -0.01396979 123.74243512 -0.01412719 C126.94629476 -0.01474995 130.1501544 -0.01538676 133.35401403 -0.01604671 C163.36466339 -0.02215468 193.37530073 -0.01663417 223.38594822 -0.00585292 C249.99434546 0.00363346 276.60272354 0.00279097 303.21112061 -0.0067749 C333.16362513 -0.01750722 363.11611904 -0.02171769 393.06862521 -0.01555037 C396.26762056 -0.01490903 399.46661591 -0.01428334 402.66561127 -0.01366425 C403.8469651 -0.01342701 403.8469651 -0.01342701 405.05218466 -0.01318499 C416.89554354 -0.01091917 428.7388947 -0.01355355 440.5822525 -0.01862335 C454.06471213 -0.02436632 467.54714997 -0.02286063 481.02960691 -0.01206186 C487.89864827 -0.00674015 494.76764866 -0.00469871 501.63669014 -0.01136017 C507.94220745 -0.01738225 514.24765075 -0.0139429 520.55316147 -0.00340506 C522.81674617 -0.00119722 525.08033731 -0.00224726 527.34391776 -0.00715664 C563.59063766 -0.07965102 602.55490163 2.31316856 635.77606201 18.25396729 C637.99983407 19.30531028 640.22475419 20.35419583 642.44989014 21.40264893 C643.96712431 22.12097841 645.48160519 22.84516113 646.99285889 23.57598877 C647.68444092 23.90800293 648.37602295 24.24001709 649.08856201 24.58209229 C649.70344482 24.88018799 650.31832764 25.17828369 650.95184326 25.4854126 C652.86925466 26.29322993 654.74813922 26.8007064 656.77606201 27.25396729 C656.77606201 27.91396729 656.77606201 28.57396729 656.77606201 29.25396729 C657.55981201 29.46021729 658.34356201 29.66646729 659.15106201 29.87896729 C663.28812395 31.44819768 666.77018422 33.56671073 670.50653076 35.91412354 C672.81320702 37.38300295 672.81320702 37.38300295 675.77606201 38.25396729 C675.77606201 38.91396729 675.77606201 39.57396729 675.77606201 40.25396729 C676.43477295 40.46150635 677.09348389 40.66904541 677.77215576 40.88287354 C681.910088 42.77157863 685.25692073 45.41129819 688.83856201 48.19146729 C689.59008545 48.77049805 690.34160889 49.34952881 691.11590576 49.94610596 C696.70743794 54.30494861 701.978046 58.89734136 707.13153076 63.76177979 C709.56617774 66.05617384 712.05740908 68.25489147 714.58856201 70.44146729 C718.70826013 74.09687026 722.24168978 78.03990809 725.77606201 82.25396729 C726.59848389 83.1885376 727.42090576 84.12310791 728.26824951 85.08599854 C753.92247246 114.38861683 771.21101262 150.28413193 779.71356201 188.19146729 C779.90087891 189.01630615 780.0881958 189.84114502 780.28118896 190.690979 C783.88976208 208.1585648 784.06868723 225.93929814 784.03675842 243.69728088 C784.03978532 246.10958273 784.04367748 248.52188361 784.04835099 250.93418282 C784.05644689 256.14375349 784.05845111 261.35328824 784.05484772 266.5628624 C784.049503 274.31073968 784.05567369 282.0585794 784.06393065 289.80645261 C784.07911582 304.45646584 784.08088125 319.10646169 784.07840762 333.75648115 C784.07656961 345.07868087 784.0783452 356.40087494 784.08263206 367.72307396 C784.08323449 369.35408555 784.08383569 370.98509715 784.08443567 372.61610874 C784.085343 375.07442582 784.08625167 377.5327429 784.08716802 379.99105998 C784.0955898 402.82909178 784.09993876 425.66712147 784.0957613 448.50515461 C784.09560492 449.36490863 784.09544855 450.22466265 784.09528743 451.11046982 C784.09448174 455.46726434 784.09363597 459.82405884 784.09277413 464.18085334 C784.09260304 465.04600207 784.09243195 465.9111508 784.09225568 466.80251616 C784.09190902 468.55205631 784.09156049 470.30159646 784.0912101 472.05113661 C784.08585762 499.25002595 784.09377303 526.44888283 784.11224365 553.64776611 C784.13301123 584.26428794 784.14367707 614.88078967 784.13966817 645.49731892 C784.13927288 648.76917501 784.13891132 652.0410311 784.13857079 655.31288719 C784.13843469 656.52114628 784.13843469 656.52114628 784.13829584 657.75381465 C784.13713511 669.85682827 784.1437382 681.95982145 784.15438271 694.06282997 C784.16649577 707.84896336 784.16792421 721.63505206 784.15559254 735.42118619 C784.14959101 742.44274326 784.14819831 749.4642203 784.16059494 756.48577118 C784.30972038 845.666787 784.30972038 845.666787 769.77606201 884.25396729 C769.3674292 885.34709229 768.95879639 886.44021729 768.53778076 887.56646729 C764.88702027 897.10992802 760.55064493 906.22515043 755.77606201 915.25396729 C755.42140869 915.92605225 755.06675537 916.59813721 754.70135498 917.29058838 C747.16582843 931.43622593 738.12972318 944.02694578 727.77606201 956.25396729 C727.30378174 956.81648193 726.83150146 957.37899658 726.34490967 957.95855713 C718.04930973 967.83376311 709.70801368 976.89985926 699.60028076 984.98052979 C697.80708729 986.42401333 696.03563882 987.89527871 694.29559326 989.40240479 C657.20636941 1021.25888542 602.62304524 1040.48753839 554.02406597 1040.38260174 C552.98313759 1040.38435478 551.9422092 1040.38610781 550.86973754 1040.38791397 C547.38884783 1040.39255833 543.90800018 1040.3901125 540.42710876 1040.38768005 C537.90336505 1040.38954881 535.37962162 1040.39184977 532.85587865 1040.39454538 C527.37231963 1040.39938505 521.88877322 1040.40111872 516.4052124 1040.40008926 C508.25072121 1040.39856213 500.09623975 1040.40273095 491.94175045 1040.40796389 C476.52950251 1040.41762819 461.1172579 1040.42044778 445.70500728 1040.42102095 C433.80270501 1040.42148069 421.90040404 1040.42354008 409.99810219 1040.42672157 C406.57064241 1040.42761913 403.14318264 1040.42850894 399.71572286 1040.42939645 C398.86362287 1040.4296175 398.01152287 1040.42983855 397.13360167 1040.43006629 C373.17027867 1040.43621927 349.20695613 1040.44016698 325.24363232 1040.43972301 C324.34040984 1040.43970744 323.43718736 1040.43969186 322.5065945 1040.43967581 C317.92879812 1040.4395927 313.35100174 1040.43949366 308.77320536 1040.4393911 C307.86405525 1040.43937115 306.95490514 1040.43935121 306.01820502 1040.43933066 C304.17968306 1040.43929022 302.3411611 1040.43924842 300.50263914 1040.43920527 C271.89577697 1040.43859246 243.28892665 1040.44610057 214.68206787 1040.45977783 C182.5349365 1040.47514144 150.38781292 1040.48374391 118.24067765 1040.48281461 C114.81227481 1040.48273998 111.38387197 1040.48269127 107.95546913 1040.48266029 C106.68924924 1040.48264281 106.68924924 1040.48264281 105.39744916 1040.48262498 C91.819419 1040.48259422 78.24139915 1040.48897704 64.66337206 1040.49759256 C51.01575532 1040.5060731 37.36815363 1040.50705582 23.72053572 1040.50048324 C15.6159078 1040.49679044 7.51132564 1040.4986119 -0.59329743 1040.50842558 C-6.64909319 1040.515138 -12.70483512 1040.51136497 -18.76063152 1040.50355235 C-21.20738517 1040.50201426 -23.65414377 1040.50384514 -26.10089157 1040.50941243 C-40.9793752 1040.54102078 -54.56792829 1039.89620609 -69.02081299 1036.09381104 C-71.93761172 1035.32904064 -74.86412945 1034.62135485 -77.79718018 1033.92218018 C-98.27633637 1028.9733021 -116.41841458 1021.48507987 -134.96807861 1011.54205322 C-135.73829346 1011.12987549 -136.5085083 1010.71769775 -137.30206299 1010.29302979 C-138.32928467 1009.73929688 -138.32928467 1009.73929688 -139.3772583 1009.17437744 C-141.36939843 1008.12761157 -141.36939843 1008.12761157 -144.22393799 1007.25396729 C-144.22393799 1006.59396729 -144.22393799 1005.93396729 -144.22393799 1005.25396729 C-144.91229736 1005.01806885 -145.60065674 1004.78217041 -146.30987549 1004.53912354 C-149.81095769 1002.99508058 -152.77422259 1000.93484557 -155.84893799 998.69146729 C-156.4643042 998.24601562 -157.07967041 997.80056396 -157.71368408 997.34161377 C-166.79377461 990.71086649 -175.22003601 983.45151642 -183.45050049 975.80865479 C-185.69470834 973.74145488 -187.96579658 971.73361649 -190.28643799 969.75396729 C-220.86960221 942.96210442 -240.97206562 902.8955317 -250.53643799 863.81646729 C-250.86381958 862.48168335 -250.86381958 862.48168335 -251.19781494 861.11993408 C-251.94598367 857.84416057 -252.59321504 854.55386116 -253.22393799 851.25396729 C-253.46102619 850.01921245 -253.46102619 850.01921245 -253.70290406 848.75951307 C-256.76218785 832.42504302 -257.79515643 816.68955124 -257.71841431 800.09687805 C-257.72159969 797.55962482 -257.72653594 795.02237331 -257.73304713 792.48512644 C-257.74311197 787.01832288 -257.74104266 781.55174387 -257.72767639 776.0849514 C-257.70785551 767.95542827 -257.71135293 759.82602511 -257.71917698 751.69648745 C-257.7316662 738.00956252 -257.72545427 724.3227069 -257.70798874 710.63578987 C-257.69070643 697.08897318 -257.68094968 683.54218764 -257.68132401 669.99535942 C-257.6813393 669.14985958 -257.68135459 668.30435974 -257.68137034 667.43323869 C-257.68145217 664.0004852 -257.68158341 660.56773172 -257.68178197 657.13497824 C-257.68359051 624.99218911 -257.66375811 592.84944728 -257.63292264 560.70667456 C-257.60566143 532.18459013 -257.59320099 503.66253925 -257.59454346 475.14044189 C-257.59462428 473.30783286 -257.594705 471.47522382 -257.59478562 469.64261479 C-257.59482632 468.73658106 -257.59486702 467.83054733 -257.59490895 466.89705803 C-257.59511056 462.3356565 -257.59529172 457.77425497 -257.59544945 453.21285343 C-257.59548287 452.31284323 -257.5955163 451.41283303 -257.59555074 450.48554979 C-257.59628182 426.60636508 -257.58719624 402.72718454 -257.57479632 378.84800333 C-257.57435578 377.99811934 -257.57391523 377.14823535 -257.57346134 376.2725973 C-257.57168503 372.85550956 -257.56990819 369.43842183 -257.56807943 366.02133412 C-257.56177365 354.16026957 -257.55874275 342.29920833 -257.55785645 330.43814222 C-257.55665988 315.15444173 -257.54862327 299.87076884 -257.52899353 284.58708013 C-257.5188029 276.51453715 -257.51393159 268.44203463 -257.5169859 260.36948555 C-257.51863791 254.32930801 -257.50975818 248.28919282 -257.4968849 242.24902683 C-257.49327949 239.81542146 -257.49297675 237.38180834 -257.49641947 234.94820274 C-257.53618077 203.32659579 -257.53618077 203.32659579 -253.78253174 188.51568604 C-253.32815004 186.67591678 -252.93985095 184.81992313 -252.57159424 182.96099854 C-252.33311768 181.75830322 -252.09464111 180.55560791 -251.84893799 179.31646729 C-251.63495361 178.21431885 -251.42096924 177.11217041 -251.20050049 175.97662354 C-249.95011064 171.21013744 -248.11195976 166.7978971 -246.22393799 162.25396729 C-245.55423406 160.57679148 -244.8875365 158.8984119 -244.22393799 157.21881104 C-243.55727132 155.54302979 -242.89060465 153.86724854 -242.22393799 152.19146729 C-241.89393799 151.35808838 -241.56393799 150.52470947 -241.22393799 149.66607666 C-232.22525924 127.08150206 -220.02649547 106.75133175 -204.22393799 88.25396729 C-203.31157881 87.15705969 -202.40016917 86.05936183 -201.48956299 84.96099854 C-190.28408742 71.54037777 -178.2639968 59.68408972 -164.22393799 49.25396729 C-163.27776611 48.53595947 -162.33159424 47.81795166 -161.35675049 47.07818604 C-130.8993008 24.34545184 -95.45728542 10.43018806 -58.16143799 4.00396729 C-56.85432861 3.77713257 -56.85432861 3.77713257 -55.52081299 3.54571533 C-37.08894458 0.60173635 -18.6291159 -0.04022939 0 0 Z " fill="#34373B" transform="translate(607.2239379882813,29.74603271484375)"/>
<path d="M0 0 C8.20160496 6.15120372 10.75312658 14.95245699 14.08984375 24.31640625 C17.87965174 34.92437772 22.12974092 44.96760951 27.5 54.875 C28.06460938 55.92042969 28.62921875 56.96585937 29.2109375 58.04296875 C36.52890818 71.0469683 45.59731374 82.75464073 55.5 93.875 C56.0470459 94.49052734 56.5940918 95.10605469 57.15771484 95.74023438 C76.86757454 117.76006068 101.04265677 134.37167482 129.5 142.875 C131.00216976 143.38954191 132.50251821 143.90947004 134 144.4375 C140.40212213 146.57559012 146.97027011 148.1791545 153.5 149.875 C154.30050781 150.09414063 155.10101562 150.31328125 155.92578125 150.5390625 C194.64752703 160.93728682 242.6214835 150.30052142 276.8125 131 C289.20330849 123.59713878 300.15148694 114.86814744 310.90966797 105.28173828 C312.89090039 103.52922659 314.91563811 101.83032774 316.9375 100.125 C340.85505555 78.91605651 355.57823689 47.72312599 366 18.13916016 C370.92037281 4.35852186 370.92037281 4.35852186 376.69921875 1.03515625 C384.52719012 -1.35426564 393.83875325 -1.70380938 401.6484375 0.94140625 C404.2111445 2.38835005 406.29945966 3.92499556 408.5 5.875 C409.21027344 6.46667969 409.92054688 7.05835938 410.65234375 7.66796875 C414.29872772 11.16994148 415.95786496 13.96608356 416.1875 19.0625 C414.55846068 42.65098934 398.83730688 68.21755771 386.5 87.875 C385.95230957 88.76662842 385.95230957 88.76662842 385.39355469 89.67626953 C384.4846752 91.11260124 383.4989796 92.49980894 382.5 93.875 C381.84 93.875 381.18 93.875 380.5 93.875 C380.38245361 94.46490723 380.26490723 95.05481445 380.14379883 95.66259766 C379.46825703 97.9840841 378.64404631 99.35123913 377.19921875 101.2734375 C376.48463501 102.22911621 376.48463501 102.22911621 375.75561523 103.20410156 C375.23813721 103.87924805 374.72065918 104.55439453 374.1875 105.25 C373.65133057 105.95608398 373.11516113 106.66216797 372.56274414 107.38964844 C367.59178676 113.87243298 362.37287687 120.11571941 356.95703125 126.22998047 C355.99462596 127.31655668 355.03620245 128.40667425 354.08203125 129.50048828 C347.76911688 136.73072039 341.07884013 142.9583598 333.5 148.875 C332.354213 149.81721059 331.21111449 150.76269731 330.0703125 151.7109375 C297.20175612 178.87510654 256.81532732 196.23938492 214.25708008 200.40893555 C213.36402664 200.4968486 212.47097321 200.58476166 211.55085754 200.67533875 C210.87407455 200.74122696 210.19729156 200.80711517 209.5 200.875 C209.46701906 233.23589808 209.46135186 265.59699375 209.68390656 297.95729065 C209.72386205 303.80731734 209.75591762 309.65717592 209.77099609 315.50732422 C209.78626343 321.34466733 209.82076634 327.18161716 209.86830902 333.01878357 C209.88288433 335.1904306 209.89102687 337.36213296 209.89188385 339.53382874 C209.90296603 353.45325683 211.2187312 366.33887218 214.5 379.875 C214.73358215 380.87857544 214.96716431 381.88215088 215.20782471 382.9161377 C217.97152283 394.17564857 224.60959586 405.65864726 231.5 414.875 C232.06976562 415.64714844 232.63953125 416.41929687 233.2265625 417.21484375 C250.31596162 439.47325865 272.57706986 452.66819171 300.5 456.875 C328.09171934 458.97270943 356.40132089 453.18949934 378.4375 435.51953125 C379.95329637 434.14705537 381.44552942 432.74747762 382.8984375 431.30859375 C384.5 429.875 384.5 429.875 386.5 429.875 C386.75652344 429.29363281 387.01304687 428.71226562 387.27734375 428.11328125 C388.61146811 425.67093858 390.12072773 424.05134553 392.0625 422.0625 C408.65265048 403.66579956 414.08708639 379.33095898 419.5 355.875 C430.72 355.875 441.94 355.875 453.5 355.875 C453.5 373.34056781 453.5 373.34056781 451.8125 381.375 C451.63243408 382.26590332 451.45236816 383.15680664 451.2668457 384.07470703 C446.0710307 408.75094418 434.68304754 430.77089985 417.8203125 449.40332031 C416.12523101 451.29273437 414.50517818 453.24205152 412.875 455.1875 C391.16446911 479.65080155 356.84661347 494.33272035 324.5 496.875 C286.10055649 498.78962193 250.3299594 487.91838769 221.5 461.875 C197.1000258 439.56054886 181.23778093 412.00798417 173.6875 379.8125 C173.49244873 378.9877417 173.29739746 378.1629834 173.09643555 377.31323242 C168.87372039 357.96548548 169.22704648 338.43685262 169.29721212 318.76054525 C169.30986232 314.60462199 169.31090108 310.44869467 169.31326294 306.29275513 C169.31943629 298.45223215 169.33578992 290.61176611 169.35596192 282.77126801 C169.37845132 273.83269738 169.38934687 264.89412379 169.39935279 255.95553184 C169.42016069 237.59532249 169.45525447 219.23516585 169.5 200.875 C167.68254272 200.78847168 167.68254272 200.78847168 165.82836914 200.70019531 C164.20978674 200.61806355 162.5912164 200.53569411 160.97265625 200.453125 C160.1775061 200.41590332 159.38235596 200.37868164 158.56311035 200.34033203 C150.99445868 199.94554683 143.86900764 198.69612076 136.5 196.875 C135.86336426 196.7207959 135.22672852 196.5665918 134.57080078 196.40771484 C106.6287698 189.47233819 78.40859195 175.17756189 55.5 157.875 C54.89655762 157.42415039 54.29311523 156.97330078 53.67138672 156.50878906 C46.13876119 150.84978113 39.05299193 144.81529326 32.18359375 138.37109375 C29.89715027 136.24440178 27.57012916 134.20427439 25.1875 132.1875 C21.92547383 129.35504106 19.10936588 126.30227151 16.32421875 123.00390625 C15.09080028 121.56447784 13.82086433 120.15567879 12.51953125 118.77734375 C-9.95105857 94.9151327 -27.20130624 64.01380341 -35.375 32.3125 C-35.59075684 31.47904053 -35.80651367 30.64558105 -36.02880859 29.78686523 C-37.87438948 22.20926238 -38.57512308 15.8791178 -34.5 8.875 C-25.43299 -0.21375343 -12.32793853 -3.96255167 0 0 Z " fill="#F8F9F9" transform="translate(660.5,445.125)"/>
<path d="M0 0 C1.57201172 0.01353516 1.57201172 0.01353516 3.17578125 0.02734375 C22.93306422 0.46423699 40.51981402 7.35706276 54.48046875 21.4453125 C55.42875932 22.43863979 56.37308649 23.4357733 57.3125 24.4375 C58.07175781 25.23929688 58.83101562 26.04109375 59.61328125 26.8671875 C73.47064227 42.85024079 78.59113379 62.70468995 77.3125 83.4375 C75.30595647 103.95852729 65.31469236 123.26372062 49.3125 136.4375 C40.31775715 143.01338633 30.82651337 147.00803641 20.3125 150.4375 C19.50296875 150.705625 18.6934375 150.97375 17.859375 151.25 C0.41493769 156.04389117 -21.11722572 151.21392818 -36.5859375 142.875 C-55.06337919 131.69537142 -66.24177331 115.41121595 -71.92578125 94.76171875 C-76.54128254 74.61919774 -73.14358528 52.6198344 -62.5625 34.875 C-48.33075702 13.84874746 -25.8783346 -0.26956599 0 0 Z " fill="#F8F8F7" transform="translate(1095.6875,629.5625)"/>
<path d="M0 0 C85.64222615 0 85.64222615 0 103.75 17.3125 C117.70219991 32.03705383 123.55719679 48.64682695 123.41723633 68.71850586 C122.95103535 86.01500333 116.53749944 103.434822 104.265625 115.89453125 C103.51796875 116.58933594 102.7703125 117.28414062 102 118 C101.31421875 118.64324219 100.6284375 119.28648438 99.921875 119.94921875 C91.31656307 127.29560541 80.79902713 130.83141704 69.9375 133.3125 C69.24277588 133.47194092 68.54805176 133.63138184 67.83227539 133.7956543 C57.03737806 136.05221476 45.98640665 136.16419051 35 136.125 C33.94683594 136.12886719 32.89367187 136.13273437 31.80859375 136.13671875 C21.16229119 136.12414933 10.67125889 135.50815519 0 135 C0 90.45 0 45.9 0 0 Z " fill="#2C3034" transform="translate(138,1220)"/>
<path d="M0 0 C2.28125 2.0625 2.28125 2.0625 4 4 C4 4.66 4 5.32 4 6 C4.75023437 5.40832031 5.50046875 4.81664062 6.2734375 4.20703125 C20.95767582 -7.12979254 32.45680755 -10.33858215 51 -9 C60.21978662 -7.22305875 67.8311448 -2.41207207 73.25 5.25 C78.7316497 14.10727049 81.13258451 22.60885941 81.11352539 33.01513672 C81.11367142 33.68900925 81.11381744 34.36288177 81.1139679 35.05717468 C81.11327621 37.26471273 81.10551897 39.47216436 81.09765625 41.6796875 C81.09578942 43.21810866 81.09436677 44.75653042 81.09336853 46.29495239 C81.08956419 50.32924055 81.07975184 54.36349227 81.06866455 58.39776611 C81.0584055 62.52038073 81.05386131 66.64300128 81.04882812 70.765625 C81.03812757 78.84376852 81.02054778 86.92187552 81 95 C72.09 95 63.18 95 54 95 C53.96261719 90.70097656 53.92523437 86.40195313 53.88671875 81.97265625 C53.84855736 78.52419339 53.80748504 75.07579226 53.7644577 71.627388 C53.71997212 67.99860277 53.68050201 64.36992832 53.65356445 60.7409668 C53.6273727 57.23941593 53.5868616 53.73828585 53.53681374 50.2369976 C53.51224366 48.26479031 53.50214149 46.29241968 53.49235535 44.32008362 C53.37799071 37.26790829 52.62578233 31.5350621 50 25 C49.773125 24.030625 49.54625 23.06125 49.3125 22.0625 C48.06831224 19.67043257 48.06831224 19.67043257 44.8125 18.6875 C36.18094815 17.04037818 26.68425734 16.35579191 19 21 C11.33713797 28.66286203 11.5385362 37.95583718 11.48828125 48.125 C11.47140855 49.48121743 11.45325488 50.83741947 11.43388367 52.19360352 C11.38665791 55.73788644 11.3566724 59.28210693 11.33044434 62.82659912 C11.30049913 66.45353433 11.25417525 70.08025924 11.20898438 73.70703125 C11.12173456 80.80470244 11.06155672 87.90187383 11 95 C2.09 95 -6.82 95 -16 95 C-16.06058594 92.13957031 -16.12117187 89.27914063 -16.18359375 86.33203125 C-16.24585427 83.48200024 -16.30904365 80.63199117 -16.37231445 77.78198242 C-16.41494569 75.83994606 -16.45665047 73.89788909 -16.49731445 71.95581055 C-16.61691152 66.260923 -16.75397668 60.56690858 -16.91766357 54.87310791 C-16.97303715 52.94086155 -17.02527071 51.0085229 -17.07452393 49.07611084 C-17.15089157 46.24146062 -17.24663064 43.40808567 -17.34765625 40.57421875 C-17.36799423 39.72793411 -17.38833221 38.88164948 -17.4092865 38.00971985 C-17.64728073 32.13825177 -18.35825299 26.0725999 -22.34461975 21.43608093 C-27.96235478 16.39392639 -34.53841375 16.53688403 -41.765625 16.5859375 C-48.06939052 17.3929413 -51.38861551 21.18202776 -55.4375 25.75 C-58.25927099 29.81335022 -58.30246988 33.28708576 -58.52734375 38.11328125 C-58.58933205 39.36858391 -58.58933205 39.36858391 -58.65257263 40.64924622 C-59.15724433 51.48961901 -59.3532199 62.33824887 -59.5625 73.1875 C-59.60584121 75.31706298 -59.64945951 77.44662034 -59.69335938 79.57617188 C-59.7992608 84.7173863 -59.89952485 89.85866544 -60 95 C-68.91 95 -77.82 95 -87 95 C-87 61.01 -87 27.02 -87 -8 C-78.09 -8 -69.18 -8 -60 -8 C-59.34 -4.7 -58.68 -1.4 -58 2 C-56.865625 0.9275 -55.73125 -0.145 -54.5625 -1.25 C-38.62692543 -15.20775503 -16.20945224 -11.74597989 0 0 Z " fill="#2C3034" transform="translate(576,1260)"/>
<path d="M0 0 C7.91813067 0.42972614 15.35898353 1.23907526 23 3.375 C24.20849609 3.68824219 24.20849609 3.68824219 25.44140625 4.0078125 C29.74837401 5.1714743 33.24547821 6.51342178 37 9 C39.19130534 9.69579454 39.19130534 9.69579454 41 10 C41 10.66 41 11.32 41 12 C41.78375 12.144375 42.5675 12.28875 43.375 12.4375 C46 13 46 13 48 14 C48 14.66 48 15.32 48 16 C48.5775 16.10699219 49.155 16.21398437 49.75 16.32421875 C62.56386279 20.17282685 74.70866542 36.78872559 81.00048828 48.10205078 C92.46510602 69.87194289 94.77082235 91.57074904 94.60576439 115.86887527 C94.58527455 119.57666436 94.59155467 123.28443188 94.59387207 126.99226379 C94.59381887 133.21771199 94.57429411 139.44285302 94.54199219 145.66821289 C94.5051974 152.79256228 94.49630973 159.91650937 94.5032897 167.04094142 C94.50967181 173.9799825 94.49869506 180.9188904 94.47932434 187.85790443 C94.47130057 190.77069357 94.4684122 193.68341321 94.47001648 196.59621239 C94.47360957 243.78958565 94.47360957 243.78958565 89 252 C88.44127197 251.76812988 87.88254395 251.53625977 87.30688477 251.29736328 C84.72846886 250.23235962 82.14557629 249.17864721 79.5625 248.125 C78.68400391 247.76019531 77.80550781 247.39539063 76.90039062 247.01953125 C71.29982835 244.74624029 65.91623663 243.21996471 60 242 C59 241 59 241 58.88533211 238.6967411 C58.89015036 237.66780928 58.89496861 236.63887745 58.89993286 235.57876587 C58.90289368 234.40162521 58.90585449 233.22448456 58.90890503 232.01167297 C58.91721344 230.70796249 58.92552185 229.40425201 58.93408203 228.06103516 C58.93927245 226.68286811 58.94398114 225.30469917 58.94824219 223.92652893 C58.95821163 220.9483331 58.9710736 217.97016817 58.98596573 214.99199295 C59.00902943 210.2652125 59.02233702 205.53843633 59.03366089 200.81161499 C59.06708001 187.36589149 59.10821931 173.92022861 59.17138672 160.47460938 C59.20615728 153.05598935 59.22980906 145.63741668 59.24159515 138.21872365 C59.24830699 134.29949765 59.26051866 130.38047147 59.28662491 126.46132278 C59.8230759 88.59009595 59.8230759 88.59009595 43.63671875 55.171875 C42 53 42 53 41 50 C39.18589376 48.95947629 39.18589376 48.95947629 37 48 C35.39208253 46.90130252 33.78831835 45.79651548 32.1875 44.6875 C23.29615869 38.98182643 13.12927368 36.07083724 2.7578125 34.359375 C1 34 1 34 0 33 C-0.08843793 30.55169574 -0.11528752 28.13179401 -0.09765625 25.68359375 C-0.0962413 24.95253922 -0.09482635 24.22148468 -0.09336853 23.46827698 C-0.08775408 21.12464368 -0.07519922 18.78110461 -0.0625 16.4375 C-0.05748686 14.85221492 -0.05292363 13.26692834 -0.04882812 11.68164062 C-0.03777997 7.7877239 -0.02050572 3.89387795 0 0 Z " fill="#F7F6F5" transform="translate(990,183)"/>
<path d="M0 0 C0 10.89 0 21.78 0 33 C-2.454375 33.474375 -4.90875 33.94875 -7.4375 34.4375 C-25.66664695 38.46867251 -40.35116622 48.6976544 -51 64 C-51.721875 65.03125 -52.44375 66.0625 -53.1875 67.125 C-60.10029062 79.87790684 -60.15242352 95.3551238 -60.11352539 109.42407227 C-60.11324285 110.86380511 -60.11340256 112.30353811 -60.1139679 113.74327087 C-60.11425326 117.62692439 -60.10839886 121.51054664 -60.10139394 125.39419293 C-60.09511682 129.46208869 -60.09455316 133.52998528 -60.09336853 137.59788513 C-60.09026802 145.28994037 -60.08207197 152.98198129 -60.07201904 160.67403024 C-60.06081804 169.43585988 -60.05533743 178.19769021 -60.05032361 186.95952523 C-60.03988822 204.97302492 -60.02231369 222.9865113 -60 241 C-61.62264771 241.48376099 -61.62264771 241.48376099 -63.27807617 241.97729492 C-64.72064143 242.41552032 -66.1631 242.854097 -67.60546875 243.29296875 C-68.3157019 243.50369019 -69.02593506 243.71441162 -69.75769043 243.93151855 C-75.21052898 245.60196895 -79.97944841 247.89409038 -84.86328125 250.86328125 C-87 252 -87 252 -90 252 C-90.48843538 248.64711855 -90.96387838 245.2925034 -91.4375 241.9375 C-91.57220703 241.01388672 -91.70691406 240.09027344 -91.84570312 239.13867188 C-94.15807942 222.61364126 -94.17668069 206.13097177 -94.203125 189.4765625 C-94.20595238 188.26381023 -94.20877975 187.05105797 -94.21169281 185.80155563 C-94.22660564 179.37958313 -94.23588422 172.95763261 -94.24023438 166.53564453 C-94.24569871 159.97945959 -94.26970691 153.42348442 -94.29820633 146.86736488 C-94.31703665 141.75710503 -94.32204908 136.6468936 -94.32357025 131.53660202 C-94.32655296 129.12342562 -94.33442821 126.71024914 -94.34775543 124.2971077 C-94.54044689 86.71751961 -89.59710183 53.93877501 -63.1875 25.75 C-46.08726887 9.50307381 -23.47695857 0 0 0 Z " fill="#F8F8F7" transform="translate(708,183)"/>
<path d="M0 0 C10.89490611 9.02667942 16.72988541 21.38248628 18.61328125 35.28125 C19.76845785 50.46357104 16.31830954 62.6343221 7.61328125 75.28125 C6.53046875 76.8590625 6.53046875 76.8590625 5.42578125 78.46875 C-4.25750344 88.15203469 -16.139849 92.48083875 -29.63671875 92.53125 C-40.44654587 92.51517591 -47.00802786 90.17079455 -55.38671875 83.28125 C-56.71585047 82.27567223 -58.0480852 81.27414376 -59.38671875 80.28125 C-59.37511719 81.18359375 -59.36351562 82.0859375 -59.3515625 83.015625 C-59.23503171 97.11767165 -59.82914112 111.19245808 -60.38671875 125.28125 C-65.33671875 125.28125 -70.28671875 125.28125 -75.38671875 125.28125 C-75.38671875 81.39125 -75.38671875 37.50125 -75.38671875 -7.71875 C-70.76671875 -7.71875 -66.14671875 -7.71875 -61.38671875 -7.71875 C-61.38671875 -3.75875 -61.38671875 0.20125 -61.38671875 4.28125 C-60.48050781 3.59417969 -59.57429688 2.90710937 -58.640625 2.19921875 C-40.72033644 -11.17251013 -19.1038613 -13.75728146 0 0 Z " fill="#383B3F" transform="translate(1231.38671875,1263.71875)"/>
<path d="M0 0 C8.32385399 6.90733849 16.28281635 17.06673899 18 28 C18.37993544 33.66846203 18.23303299 39.32855972 18 45 C17.9690625 45.89460938 17.938125 46.78921875 17.90625 47.7109375 C17.04402679 59.65272891 10.96480063 71.62789129 2.3125 79.8125 C-11.3661786 90.88318152 -27.05483623 92.53569409 -44 91 C-48.49776077 89.94781299 -52.0933145 88.44087127 -56 86 C-57.09248047 85.33097656 -57.09248047 85.33097656 -58.20703125 84.6484375 C-69.86967158 76.66521525 -76.68286234 65.31642378 -79.4921875 51.625 C-81.77547665 35.32582823 -79.12594206 21.260234 -69.359375 7.7265625 C-51.90516604 -13.76118215 -21.51906924 -16.05852464 0 0 Z " fill="#FAFAFA" transform="translate(1110,1265)"/>
<path d="M0 0 C3.20342517 2.71059053 5.72239398 5.47913701 8 9 C8.41154327 9.60465591 8.82308655 10.20931183 9.24710083 10.83229065 C14.14551496 19.05931589 13.63924484 27.36712745 13.48828125 36.6015625 C13.47893897 38.29119819 13.47182956 39.98084755 13.46684265 41.67050171 C13.44788387 46.08651072 13.39888164 50.50167847 13.34332275 54.9173584 C13.29188797 59.4356753 13.26927724 63.95413006 13.24414062 68.47265625 C13.19074957 77.31553052 13.1029074 86.15756322 13 95 C4.75 95 -3.5 95 -12 95 C-12.99 91.04 -12.99 91.04 -14 87 C-14.49628906 87.39832031 -14.99257813 87.79664063 -15.50390625 88.20703125 C-24.61674337 95.31400669 -32.4520425 97.17913766 -43.875 97.1875 C-44.74769531 97.19974609 -45.62039063 97.21199219 -46.51953125 97.22460938 C-55.89093827 97.24574789 -63.61598632 94.88256022 -71 89 C-79.97074502 78.81880962 -81.48219541 71.20172827 -81 58 C-80.30647903 50.57591485 -76.49682372 45.20060518 -71.109375 40.26953125 C-64.33242764 34.86664999 -57.56784161 32.52169977 -48.9140625 32.63671875 C-48.17223724 32.63622025 -47.43041199 32.63572174 -46.66610718 32.63520813 C-45.1081065 32.63753185 -43.55010084 32.64715878 -41.9921875 32.66381836 C-39.63767017 32.68737325 -37.28429269 32.68437053 -34.9296875 32.67773438 C-27.1180555 32.69352984 -19.5900557 32.93524956 -12 35 C-15.20771574 24.53186707 -15.20771574 24.53186707 -22.703125 16.8984375 C-33.45772933 12.69170451 -46.18898259 15.44075473 -57 18 C-57.9178125 18.21398438 -58.835625 18.42796875 -59.78125 18.6484375 C-61.52742683 19.07268469 -63.26551233 19.53024292 -65 20 C-66.15879664 17.81855776 -67.30187378 15.63096983 -68.4375 13.4375 C-68.76298828 12.82841797 -69.08847656 12.21933594 -69.42382812 11.59179688 C-71.60371221 7.34439386 -72.56519369 3.75837333 -73 -1 C-49.0321524 -12.26812103 -23.15222085 -14.52301308 0 0 Z " fill="#2A2E32" transform="translate(762,1260)"/>
<path d="M0 0 C6.99563444 6.58336869 12.65137397 14.60549587 15 24 C15 32.58 15 41.16 15 50 C-9.75 50 -34.5 50 -60 50 C-57.525 54.95 -57.525 54.95 -55 60 C-54.34 61.32 -53.68 62.64 -53 64 C-51.09065822 65.16040404 -51.09065822 65.16040404 -49 66 C-47.948125 66.70125 -46.89625 67.4025 -45.8125 68.125 C-38.51825296 71.75846388 -28.60122015 71.05186818 -20.8046875 69.26953125 C-18.10119967 68.3260063 -15.57468685 67.25136177 -13 66 C-12.04609375 65.54496094 -11.0921875 65.08992188 -10.109375 64.62109375 C-7.71891551 63.44923442 -5.35281509 62.24530777 -3 61 C-1.34221993 62.88643939 0.30082802 64.78288717 1.9375 66.6875 C2.40607422 67.21794922 2.87464844 67.74839844 3.35742188 68.29492188 C6.05397281 71.45706434 7.63541442 73.81890155 8 78 C-5.38696141 89.65161456 -21.06035868 95.84351194 -38.94921875 95.359375 C-47.10845408 94.39823588 -54.75621666 91.81885255 -62 88 C-62 87.34 -62 86.68 -62 86 C-62.71285156 85.76152344 -63.42570312 85.52304688 -64.16015625 85.27734375 C-73.40605684 81.11859616 -80.43547815 72.32737251 -84 63 C-88.17710788 49.35299583 -89.31861642 29.73791458 -82.5625 16.875 C-74.7559812 3.31121757 -63.83937673 -6.15634036 -49 -11 C-31.82212847 -15.5193652 -13.71528986 -11.25422851 0 0 Z " fill="#2A2E32" transform="translate(367,1263)"/>
<path d="M0 0 C1.48831242 0.00667405 2.97660807 0.01863442 4.46484375 0.03515625 C5.22345703 0.03966797 5.98207031 0.04417969 6.76367188 0.04882812 C8.64326246 0.06064945 10.52281274 0.07858547 12.40234375 0.09765625 C24.94428901 25.87133471 36.44098546 52.09836815 47.89880371 78.36549377 C50.23556253 83.72053806 52.58456434 89.07013735 54.93945312 94.41723633 C55.85757232 96.5023721 56.77428926 98.58812599 57.68945312 100.67456055 C59.63220461 105.10105972 61.58705777 109.51969974 63.6015625 113.9140625 C63.93099854 114.64109375 64.26043457 115.368125 64.59985352 116.1171875 C65.44558923 117.98007679 66.30229291 119.8379768 67.16015625 121.6953125 C68.58450229 125.59658734 69.03185241 128.9725515 69.40234375 133.09765625 C64.12234375 133.09765625 58.84234375 133.09765625 53.40234375 133.09765625 C50.2130746 126.33253988 47.3120036 119.49849809 44.58984375 112.53515625 C44.27587646 111.7373877 43.96190918 110.93961914 43.63842773 110.11767578 C41.40234375 104.34365687 41.40234375 104.34365687 41.40234375 102.09765625 C40.52126953 102.10289307 39.64019531 102.10812988 38.73242188 102.11352539 C14.27207894 102.23771351 -10.14831263 101.82151083 -34.59765625 101.09765625 C-34.63141357 101.66613281 -34.6651709 102.23460937 -34.69995117 102.8203125 C-35.143518 108.26351924 -36.27784918 112.22760634 -38.91015625 117.09765625 C-39.5445176 118.29735939 -40.17733074 119.49788244 -40.80859375 120.69921875 C-41.39898438 121.82070312 -41.989375 122.9421875 -42.59765625 124.09765625 C-43.98705159 127.0772266 -45.29620936 130.07829948 -46.59765625 133.09765625 C-50.88765625 133.09765625 -55.17765625 133.09765625 -59.59765625 133.09765625 C-59.59765625 126.3438101 -59.59765625 126.3438101 -57.84765625 122.28515625 C-57.5228125 121.51558594 -57.19796875 120.74601562 -56.86328125 119.953125 C-53.72128184 112.86423127 -50.56228306 105.78350439 -47.375 98.71484375 C-46.58135622 96.95313581 -45.78773716 95.19141672 -44.99414062 93.4296875 C-43.76126102 90.69339816 -42.52818661 87.95719713 -41.29467773 85.22119141 C-40.09171609 82.55266486 -38.88955213 79.8837801 -37.6875 77.21484375 C-37.32180405 76.40425507 -36.95610809 75.59366638 -36.57933044 74.7585144 C-34.53787043 70.22419307 -32.55078054 65.67093452 -30.59765625 61.09765625 C-29.28816205 58.09981795 -27.96802908 55.10668611 -26.6484375 52.11328125 C-25.87427798 50.3541979 -25.10019195 48.59508221 -24.32617188 46.8359375 C-23.12709892 44.11150002 -21.92761167 41.38724876 -20.72680664 38.66357422 C-16.07156156 28.1023923 -11.46591224 17.52674212 -7.05622864 6.86016846 C-4.25055344 0.11537876 -4.25055344 0.11537876 0 0 Z " fill="#313438" transform="translate(1490.59765625,1221.90234375)"/>
<path d="M0 0 C10.34771924 6.190317 20.31248103 15.22550173 23.73535156 27.1628418 C26.42535549 39.46696431 24.85795908 53.46727859 18.4765625 64.2421875 C10.74597355 75.66062228 2.02567629 80.74526759 -11.23828125 83.90234375 C-21.09596599 85.51514538 -29.74497411 84.45653862 -38.79296875 80.3203125 C-38.79296875 79.6603125 -38.79296875 79.0003125 -38.79296875 78.3203125 C-39.87771484 77.94519531 -39.87771484 77.94519531 -40.984375 77.5625 C-49.52204988 73.78644908 -54.75961922 66.62645148 -58.63671875 58.41015625 C-61.12740736 51.7542958 -62.20597956 45.63391258 -62.23046875 38.5703125 C-62.23433594 37.79187988 -62.23820312 37.01344727 -62.2421875 36.21142578 C-62.10312298 29.18721897 -60.17865603 23.48710005 -56.79296875 17.3203125 C-56.13296875 17.3203125 -55.47296875 17.3203125 -54.79296875 17.3203125 C-54.55835938 16.588125 -54.32375 15.8559375 -54.08203125 15.1015625 C-50.65777066 7.71346086 -41.9125692 2.00343144 -34.79296875 -1.6796875 C-25.02687549 -4.93505192 -9.30380525 -4.2986887 0 0 Z " fill="#383A3E" transform="translate(1115.79296875,665.6796875)"/>
<path d="M0 0 C0.92965576 0.00757324 1.85931152 0.01514648 2.81713867 0.02294922 C13.86193073 0.28681468 22.54486537 2.98993439 30.8125 10.4375 C31.55242187 11.06269531 32.29234375 11.68789062 33.0546875 12.33203125 C40.50837099 19.09555886 45.36644035 27.65326142 47.8125 37.4375 C47.8125 44.0375 47.8125 50.6375 47.8125 57.4375 C22.0725 57.7675 -3.6675 58.0975 -30.1875 58.4375 C-26.05572724 70.00646374 -22.47998254 78.78667795 -12.1875 85.4375 C-3.3140492 89.34916914 10.60859328 89.19212127 19.625 85.75 C22.54635828 84.31765855 25.085251 82.56989591 27.6875 80.625 C30.8125 78.4375 30.8125 78.4375 32.8046875 78.640625 C36.06931703 79.93631454 38.19508406 82.11751769 40.8125 84.4375 C36.10534794 93.85180411 27.18348588 97.84624267 17.66796875 101.19140625 C4.91441402 104.67851586 -8.36358311 102.98403938 -20.1875 97.4375 C-32.41011034 90.45522497 -41.32859357 79.05852091 -45.1875 65.4375 C-48.22891327 50.70630103 -46.55818897 35.61386927 -38.71484375 22.62109375 C-29.3434249 9.2230806 -16.639871 -0.18863012 0 0 Z " fill="#373B3F" transform="translate(1316.1875,1254.5625)"/>
<path d="M0 0 C46.86486486 0 46.86486486 0 56.75 8.3125 C57.4925 9.199375 58.235 10.08625 59 11 C59.73669922 11.86238281 59.73669922 11.86238281 60.48828125 12.7421875 C69.11852513 23.40685612 71.71101147 35.87385485 70.5625 49.3125 C69.18312133 61.81911246 64.63291497 72.03517336 54.67578125 80.1640625 C37.88151624 91.68713484 20.62127361 89 0 89 C0 59.63 0 30.26 0 0 Z " fill="#FAFAFA" transform="translate(164,1243)"/>
<path d="M0 0 C0 0.66 0 1.32 0 2 C1.0828125 2.12375 1.0828125 2.12375 2.1875 2.25 C5 3 5 3 7.0625 4.9375 C10.27187612 7.19089174 11.92926014 7.43387903 15.75 7.9375 C22.34112787 8.85586923 28.11213366 10.82401706 32.68359375 15.8515625 C35.69386012 20.76446014 35.17508186 26.59390005 35.203125 32.17578125 C35.20882507 33.05977097 35.21452515 33.94376068 35.22039795 34.85453796 C35.22982241 36.72129122 35.23637175 38.58806093 35.24023438 40.45483398 C35.2499315 43.29245408 35.28097551 46.12934677 35.3125 48.96679688 C35.31903187 50.78645406 35.32428162 52.6061164 35.328125 54.42578125 C35.3404718 55.26563065 35.3528186 56.10548004 35.36553955 56.97077942 C35.34222772 63.21690308 34.62369406 69.37630594 30 74 C27.53781269 74.48186005 25.10417388 74.88436541 22.625 75.25 C14.94561867 76.52083185 8.78615858 79.14924955 2 83 C-5.2623039 87.03461328 -13.44464927 87.11626206 -21.5078125 85.49609375 C-26.0483831 83.98544764 -28.89124495 81.55286291 -32 78 C-32.556875 77.54625 -33.11375 77.0925 -33.6875 76.625 C-38.14811609 71.10233245 -37.32214854 62.89030275 -37.3359375 56.22265625 C-37.3425943 55.09733994 -37.3492511 53.97202362 -37.35610962 52.81260681 C-37.36620512 50.43994779 -37.3709276 48.06726055 -37.37060547 45.69458008 C-37.37498148 42.07780991 -37.41134392 38.46225797 -37.44921875 34.84570312 C-37.45508706 32.53385831 -37.45905636 30.22200774 -37.4609375 27.91015625 C-37.47530853 26.83596939 -37.48967957 25.76178253 -37.50448608 24.65504456 C-37.45918279 17.16090912 -36.22973224 12.0170799 -31.4296875 6.046875 C-22.2855329 -1.58091225 -11.32161261 -4.76699478 0 0 Z " fill="#F8F8F8" transform="translate(935,156)"/>
<path d="M0 0 C5.24078847 4.26485021 9.06828835 9.25141982 10.03144836 16.0953064 C10.17032535 19.12005273 10.18857298 22.12066829 10.15625 25.1484375 C10.15770523 26.2525145 10.15916046 27.35659149 10.16065979 28.49412537 C10.15900654 30.81796927 10.14751003 33.14182478 10.12670898 35.46557617 C10.09771756 39.01203113 10.1061209 42.55699263 10.11914062 46.10351562 C10.11290349 48.36849681 10.10451275 50.6334733 10.09375 52.8984375 C10.09668564 53.95277481 10.09962128 55.00711212 10.10264587 56.09339905 C10.01052939 63.31728445 9.16216048 68.27266223 4.59765625 74.08203125 C-2.83716053 80.09315971 -10.76077652 82.92980775 -20.25390625 82.87890625 C-26.68191406 82.00014063 -32.39226624 78.47276229 -37.6875 74.8515625 C-41.7458894 72.71777014 -46.06614618 72.30203034 -50.54492188 71.640625 C-54.63166769 70.97293132 -57.30066712 70.28946665 -60.33984375 67.45703125 C-63.98188057 58.77577349 -62.67694476 47.21247381 -62.65551758 37.95751953 C-62.65232789 35.06766019 -62.67598633 32.17879802 -62.70117188 29.2890625 C-62.70344251 27.44140753 -62.70414946 25.59374983 -62.703125 23.74609375 C-62.71233475 22.88770905 -62.72154449 22.02932434 -62.73103333 21.14492798 C-62.69448905 16.42206058 -62.40103094 13.29722519 -59.33984375 9.45703125 C-54.9973133 6.46249463 -50.12321531 5.33921166 -44.96484375 4.64453125 C-39.2819332 3.77697208 -35.52775667 1.27921013 -30.8359375 -1.921875 C-21.01358064 -8.30102695 -9.35050812 -6.16602789 0 0 Z " fill="#F9F9F9" transform="translate(790.33984375,159.54296875)"/>
<path d="M0 0 C2 2 2 2 2.5 4.1875 C1.7382828 8.47215926 -1.03728771 10.94029415 -4 14 C-7.39592526 12.98122242 -10.50307545 11.78393062 -13.625 10.125 C-26.83977198 3.3266491 -42.95263979 0.35314297 -57.5625 4.0625 C-63.1565651 6.07062593 -68.0498546 9.86198101 -71.19921875 14.9296875 C-73.46742664 20.79383473 -72.43802581 28.22444061 -70.1953125 33.97265625 C-64.08528242 44.33574648 -46.19651351 46.77865887 -35.47265625 49.91015625 C-3.89019254 59.20483081 -3.89019254 59.20483081 5.15234375 72.72265625 C8.85602058 80.48843025 7.96173231 92.20959307 6.0625 100.375 C2.81211715 109.43944794 -5.57254976 116.73276726 -14 121 C-31.99013945 128.22859609 -53.12348237 128.42144992 -71.21044922 121.10595703 C-78.81703456 117.71527375 -86.07266138 113.61822575 -93 109 C-92.66009167 103.62007164 -92.31442207 99.46726453 -89 95 C-85.02336992 95.64356091 -82.21773851 97.64173367 -78.875 99.8125 C-66.7417076 107.48191389 -55.39861619 110.35695497 -41.125 110.375 C-39.60712891 110.41173828 -39.60712891 110.41173828 -38.05859375 110.44921875 C-29.54781197 110.48191061 -21.33105369 108.853191 -14.4375 103.5625 C-9.76193122 98.64715847 -9.44588521 93.57175555 -9.55078125 87.01171875 C-10.5813608 80.10235495 -15.62413054 75.98361584 -21 72 C-28.69196382 67.82365011 -37.05181995 65.89612794 -45.48999023 63.87304688 C-61.36571073 60.02729174 -76.29907738 55.00583103 -86 41 C-88.8552363 35.37345965 -89.47029558 30.17936049 -89.375 23.9375 C-89.38660156 23.17373047 -89.39820313 22.40996094 -89.41015625 21.62304688 C-89.36214914 12.2696608 -85.39916498 6.55429625 -79 0 C-78.41347656 -0.62261719 -77.82695313 -1.24523438 -77.22265625 -1.88671875 C-56.24813846 -22.32911347 -22.50564649 -11.7319423 0 0 Z " fill="#34373B" transform="translate(896,1231)"/>
<path d="M0 0 C8.19975662 6.80405337 14.21442195 13.76030698 15.9375 24.4375 C16.7724135 38.34360029 16.36709001 51.52187213 6.76953125 62.57421875 C-0.4769069 69.94426352 -9.94942048 73.46865553 -20.3125 73.9375 C-30.79432779 73.41171252 -38.14831053 66.86193527 -44.9375 59.4375 C-48.9744013 53.73834522 -49.37164161 47.80274836 -49.36328125 41.0546875 C-49.36756638 40.27739288 -49.3718515 39.50009827 -49.37626648 38.69924927 C-49.38197521 37.06725026 -49.38253575 35.43522582 -49.37817383 33.80322266 C-49.37499985 31.31238591 -49.39856308 28.82272278 -49.42382812 26.33203125 C-49.42610016 24.73958482 -49.42680506 23.14713522 -49.42578125 21.5546875 C-49.434991 20.81499725 -49.44420074 20.07530701 -49.45368958 19.3132019 C-49.40079923 13.38820087 -47.83412916 10.33185302 -43.86328125 6.0859375 C-31.11344407 -5.56305031 -15.55685732 -7.9371721 0 0 Z " fill="#FAFAFA" transform="translate(1219.0625,1271.5625)"/>
<path d="M0 0 C8.32385399 6.90733849 16.28281635 17.06673899 18 28 C18.37993544 33.66846203 18.23303299 39.32855972 18 45 C17.9690625 45.89460938 17.938125 46.78921875 17.90625 47.7109375 C17.04402679 59.65272891 10.96480063 71.62789129 2.3125 79.8125 C-11.3661786 90.88318152 -27.05483623 92.53569409 -44 91 C-48.49776077 89.94781299 -52.0933145 88.44087127 -56 86 C-57.09248047 85.33097656 -57.09248047 85.33097656 -58.20703125 84.6484375 C-69.86967158 76.66521525 -76.68286234 65.31642378 -79.4921875 51.625 C-81.77547665 35.32582823 -79.12594206 21.260234 -69.359375 7.7265625 C-51.90516604 -13.76118215 -21.51906924 -16.05852464 0 0 Z M-50 7 C-50.62648438 7.36609375 -51.25296875 7.7321875 -51.8984375 8.109375 C-58.65756884 12.89094389 -63.34305193 22.99094562 -65 31 C-66.27194917 46.20198561 -64.74787602 58.78430726 -55 71 C-49.47793868 77.06079901 -41.66944553 79.2333471 -33.66015625 80.31640625 C-22.57659804 80.64562085 -13.50507055 75.5103454 -5.41015625 68.4296875 C-2.96170666 65.94732586 -2 64.51956868 -2 61 C-1.34 61 -0.68 61 0 61 C4.36414382 49.62205361 7.13319472 34.66635164 2 23 C-2.13757726 15.97205777 -6.94863432 10.18255911 -14 6 C-14.86882812 5.46246094 -15.73765625 4.92492188 -16.6328125 4.37109375 C-21.09636078 2.55357003 -24.9750509 2.50639223 -29.75 2.5625 C-31.08744263 2.57385986 -31.08744263 2.57385986 -32.4519043 2.58544922 C-38.96587481 2.74870065 -44.38924696 3.46813155 -50 7 Z " fill="#36393D" transform="translate(1110,1265)"/>
<path d="M0 0 C0 8.91 0 17.82 0 27 C-3.96 27.66 -7.92 28.32 -12 29 C-19.75657492 31.67938892 -26.7152554 35.80329304 -31 43 C-31.89237881 46.60047054 -32.14682838 50.00642456 -32.20532227 53.70825195 C-32.22526749 54.82903641 -32.24521271 55.94982086 -32.26576233 57.10456848 C-32.28247482 58.3036937 -32.29918732 59.50281891 -32.31640625 60.73828125 C-32.33718735 61.97418503 -32.35796844 63.21008881 -32.37937927 64.48344421 C-32.43359931 67.75652126 -32.48387578 71.0296274 -32.53222656 74.30279541 C-32.5826157 77.6478826 -32.63828816 80.99287724 -32.69335938 84.33789062 C-32.80113487 90.89186058 -32.90034178 97.44588147 -33 104 C-41.91 104 -50.82 104 -60 104 C-60 70.67 -60 37.34 -60 3 C-51.09 3 -42.18 3 -33 3 C-32.67 6.3 -32.34 9.6 -32 13 C-31.67 13.66 -31.34 14.32 -31 15 C-30.19949219 14.11248047 -30.19949219 14.11248047 -29.3828125 13.20703125 C-20.59515672 3.88725098 -12.81991196 0 0 0 Z " fill="#2E3236" transform="translate(468,1251)"/>
<path d="M0 0 C0.92167969 0.48082031 1.84335937 0.96164062 2.79296875 1.45703125 C8.40446266 4.59847319 13.29007655 7.79989676 15.8046875 13.9765625 C16 16 16 16 14.78515625 17.703125 C14.21667969 18.21359375 13.64820313 18.7240625 13.0625 19.25 C12.49660156 19.77078125 11.93070313 20.2915625 11.34765625 20.828125 C10.90292969 21.21484375 10.45820312 21.6015625 10 22 C4.53358959 20.39223223 0.46071459 17.82968001 -4.21875 14.65625 C-9.74039831 11.36807741 -14.83764618 10.61215616 -21.1875 10.625 C-21.93346436 10.62516113 -22.67942871 10.62532227 -23.44799805 10.62548828 C-29.85761838 10.75687547 -35.21986642 12.18693321 -41 15 C-42.10408203 15.50660156 -42.10408203 15.50660156 -43.23046875 16.0234375 C-45.57658719 17.31820485 -45.91779525 18.56503932 -47 21 C-47.639375 21.886875 -48.27875 22.77375 -48.9375 23.6875 C-53.43544235 30.91146801 -54.53421922 37.96580102 -54.4375 46.375 C-54.42992676 47.29821045 -54.42235352 48.2214209 -54.41455078 49.17260742 C-54.16302154 59.58353105 -51.47726051 68.45414077 -44 76 C-36.34300607 82.00308324 -27.69829002 84.429528 -18 84 C-8.3904485 81.89989934 -1.15712236 77.64589933 6 71 C9.75263377 72.26579469 11.84665788 73.52836105 14.3125 76.625 C14.82425781 77.25664063 15.33601562 77.88828125 15.86328125 78.5390625 C16.42595703 79.26222656 16.42595703 79.26222656 17 80 C8.59643925 89.60406943 -3.96667465 97.1830086 -16.80078125 98.34375 C-27.13825081 98.85152631 -35.45120071 96.93251015 -45 93 C-45.93936401 92.62137817 -45.93936401 92.62137817 -46.89770508 92.23510742 C-51.32736883 90.41065441 -53.83490684 88.62827753 -57 85 C-57.63035156 84.31035156 -58.26070312 83.62070313 -58.91015625 82.91015625 C-69.87909484 70.25999716 -71.93707563 56.13158338 -71 40 C-69.30777306 26.46218448 -63.15367551 15.11346716 -53 6 C-37.07361393 -5.27588134 -17.78921402 -9.37439909 0 0 Z " fill="#35383B" transform="translate(996,1259)"/>
<path d="M0 0 C0.66 0 1.32 0 2 0 C3.18371353 2.75776114 4.3673011 5.51557621 5.55078125 8.2734375 C5.92104935 9.13621307 6.29131744 9.99898865 6.67280579 10.88790894 C8.71395434 15.64520936 10.75304263 20.40337922 12.78857422 25.16308594 C13.61293792 27.09050241 14.43731939 29.01791128 15.26171875 30.9453125 C15.66990845 31.89974243 16.07809814 32.85417236 16.49865723 33.83752441 C18.58791383 38.71805978 20.6873576 43.59372221 22.81187439 48.45901489 C23.61129574 50.29102277 24.4057327 52.12520321 25.19995117 53.95947266 C26.12510312 56.09570668 27.05840065 58.22843829 28.0012207 60.35693359 C28.4055835 61.29617676 28.80994629 62.23541992 29.2265625 63.203125 C29.57283691 63.99364258 29.91911133 64.78416016 30.27587891 65.59863281 C31 68 31 68 31 74 C10.21 74 -10.58 74 -32 74 C-27.2195802 61.45139803 -22.46010572 49.10595904 -17 36.875 C-15.78401002 34.13128859 -14.57153233 31.38603143 -13.359375 28.640625 C-13.06746277 27.98071564 -12.77555054 27.32080627 -12.47479248 26.64089966 C-9.64911893 20.2386413 -6.93912686 13.78911823 -4.30859375 7.30419922 C-2.2117896 2.2117896 -2.2117896 2.2117896 0 0 Z " fill="#F5F6F5" transform="translate(1494,1237)"/>
<path d="M0 0 C4.95 0 9.9 0 15 0 C15 43.89 15 87.78 15 133 C10.05 133 5.1 133 0 133 C0 89.11 0 45.22 0 0 Z " fill="#363A3E" transform="translate(1585,1222)"/>
<path d="M0 0 C5.89925659 4.3915714 11.3761727 9.04115369 14 16 C14.495 22.93 14.495 22.93 15 30 C-6.12 30 -27.24 30 -49 30 C-47.75796111 18.82164997 -45.99500512 11.7032959 -37.60546875 3.984375 C-27.28835275 -3.87333854 -11.70590178 -6.71025473 0 0 Z " fill="#F9F9F9" transform="translate(1334,1270)"/>
<path d="M0 0 C0.69029297 -0.01611328 1.38058594 -0.03222656 2.09179688 -0.04882812 C7.89179034 -0.05432575 11.85388203 1.25983406 16.109375 5.21484375 C16.67140625 5.88644531 17.2334375 6.55804687 17.8125 7.25 C18.38484375 7.91902344 18.9571875 8.58804688 19.546875 9.27734375 C23.98601013 15.23814118 23.86316771 21.05538419 23.0625 28.3125 C21.05979358 34.88448806 17.13721993 38.70066142 11.3203125 42.15625 C5.11782558 45.33261008 -0.23226724 45.94125335 -6.9375 44.3125 C-12.88963919 42.01497427 -17.2164128 37.97585829 -19.91015625 32.2421875 C-22.41758187 25.54794422 -22.93866591 19.53847906 -20.8125 12.6875 C-15.63758013 3.37264423 -10.84815626 -0.05036284 0 0 Z " fill="#F7F7F6" transform="translate(1096.9375,683.6875)"/>
<path d="M0 0 C0.84691406 0.00064453 1.69382812 0.00128906 2.56640625 0.00195312 C16.95217877 0.10108938 16.95217877 0.10108938 21.125 2.1875 C21.53231602 9.65496032 20.62857123 15.96862271 15.9375 22 C8.92202626 27.45647957 2.58007901 29.33175055 -6.25 29.4375 C-7.53648437 29.46328125 -8.82296875 29.4890625 -10.1484375 29.515625 C-15.37592002 29.05534352 -18.60385289 27.49209835 -22.25 23.75 C-24.6261946 18.5406503 -25.01437935 13.80741165 -23.875 8.1875 C-18.58369644 0.06379278 -8.77554712 -0.12574313 0 0 Z " fill="#F1F1F1" transform="translate(729.875,1308.8125)"/>
<path d="M0 0 C3.28309406 3.25503342 6.35220953 6.63143922 8 11 C8 13.31 8 15.62 8 18 C-9.16 18 -26.32 18 -44 18 C-41.58232664 8.32930654 -39.12348692 2.61476302 -31 -3 C-19.63156053 -8.78394289 -9.75639808 -8.21591418 0 0 Z " fill="#F0F1F1" transform="translate(350,1278)"/>
</svg>
